# xmcd
# Track frame offsets:
# 150
# 13892
# 25332
# 38802
# 50062
# 63140
# 76515
# 87025
# 97967
# 110455
# 122682
# 133070
# 144907
# 155370
# 169195
# 179657
# 192727
# 205592
#
# Disc length: 2878 seconds
# Revision: 0
# Processed by: cddbd v1.4PL0 Copyright (c) Steve Scherf et al.
# Submitted via: VisiTrax 2.9.5.180 - For more info visit www.synapsa.com
#
DISCID=ed0b3c12
DTITLE=Wille Dixon - If The Sea Was Whikey, The Big Three Trio
DYEAR=1992
DGENRE=Blues
TTITLE0=If The Sea Was Whiskey
TTITLE1=Big 3 Boogie
TTITLE2=Since My Baby Gone
TTITLE3=Don't Let That Music Die
TTITLE4=Got You On My Mind
TTITLE5=I Ain't Gonna Be Your Monkey Man
TTITLE6=You Don't Love Me No More
TTITLE7=Come Here Baby
TTITLE8=Money Tree Blues
TTITLE9=Hard Notch Boogie Beat
TTITLE10=O.C.Bounce
TTITLE11=Tell That Woman
TTITLE12=Cool Kind Woman
TTITLE13=Big 3 Stomp
TTITLE14=What Am I To Do
TTITLE15=Signifying Monkey
TTITLE16=No One To Love Me
TTITLE17=Etiquette
EXTD=Starlite CDS 51117
EXTT0=
EXTT1=
EXTT2=
EXTT3=
EXTT4=
EXTT5=
EXTT6=
EXTT7=
EXTT8=
EXTT9=
EXTT10=
EXTT11=
EXTT12=
EXTT13=
EXTT14=
EXTT15=
EXTT16=
EXTT17=
PLAYORDER=
